<svg width="30" height="30" viewBox="0 0 30 30" fill="none" xmlns="http://www.w3.org/2000/svg">
<path d="M24.5 15C24.5 18.7582 24.4997 21.5485 24.3451 23.6349C24.1895 25.7358 23.8814 27.0266 23.334 27.8477C22.8145 28.6269 22.0306 29.0505 20.6991 29.2724C19.3435 29.4984 17.5181 29.5 15 29.5C12.4819 29.5 10.6565 29.4984 9.30095 29.2724C7.96944 29.0505 7.18551 28.6269 6.66603 27.8477C6.11863 27.0266 5.8105 25.7358 5.65488 23.6349C5.50033 21.5485 5.5 18.7582 5.5 15C5.5 11.2418 5.50033 8.45151 5.65488 6.36506C5.8105 4.26421 6.11863 2.97345 6.66603 2.15235C7.18551 1.37312 7.96944 0.949492 9.30095 0.727575C10.6565 0.501646 12.4819 0.500002 15 0.5C17.5181 0.499998 19.3435 0.501641 20.6991 0.727569C22.0306 0.949487 22.8145 1.37312 23.334 2.15235C23.8814 2.97344 24.1895 4.2642 24.3451 6.36506C24.4997 8.45151 24.5 11.2418 24.5 15Z" stroke="black"/>
<line x1="8" y1="4.5" x2="22" y2="4.5" stroke="black"/>
<line x1="8" y1="7.5" x2="22" y2="7.5" stroke="black"/>
<line x1="8" y1="10.5" x2="22" y2="10.5" stroke="black"/>
<line x1="8" y1="13.5" x2="22" y2="13.5" stroke="black"/>
<line x1="8" y1="16.5" x2="22" y2="16.5" stroke="black"/>
<line x1="8" y1="19.5" x2="22" y2="19.5" stroke="black"/>
<line x1="8" y1="22.5" x2="22" y2="22.5" stroke="black"/>
<line x1="8" y1="25.5" x2="22" y2="25.5" stroke="black"/>
</svg>
