<svg width="30" height="30" viewBox="0 0 30 30" fill="none" xmlns="http://www.w3.org/2000/svg">
<path d="M3 5C3 3.89543 3.89543 3 5 3H25C26.1046 3 27 3.89543 27 5V6C27 7.10457 26.1046 8 25 8H5C3.89543 8 3 7.10457 3 6V5Z" fill="black"/>
<path d="M3 14C3 12.8954 3.89543 12 5 12H25C26.1046 12 27 12.8954 27 14V15C27 16.1046 26.1046 17 25 17H5C3.89543 17 3 16.1046 3 15V14Z" fill="black"/>
<path d="M3 23C3 21.8954 3.89543 21 5 21H25C26.1046 21 27 21.8954 27 23V24C27 25.1046 26.1046 26 25 26H5C3.89543 26 3 25.1046 3 24V23Z" fill="black"/>
</svg>
